{"title":"17 Kids and Counting - s01e01 - Bif Family Meet Big Apple - 1080","uid":12349761,"size":707260233,"categoryP":"video","categoryS":"hd___tv_shows","magnet":"?xt=urn:btih:c6b9b6eb12abde291fe608579cc5fb022e7cd079&amp;dn=17+Kids+and+Counting+-+s01e01+-+Bif+Family+Meet+Big+Apple+-+1080&amp;tr=udp%3A%2F%2Ftracker.openbittorrent.com%3A80&amp;tr=udp%3A%2F%2Fopen.demonii.com%3A1337&amp;tr=udp%3A%2F%2Ftracker.coppersurfer.tk%3A6969&amp;tr=udp%3A%2F%2Fexodus.desync.com%3A6969","seeders":0,"leechers":0,"uploader":null,"files":10,"time":1441404324,"description":"General\n Complete name : 17 Kids and Counting - s01e01 - Big Family Meets Big Apple17 Kids and Counting - s01e01 - Big Family Meets Big Apple.mp4\n Format : MPEG-4\n Format profile : Base Media / Version 2\n Codec ID : mp42\n File size : 624 MiB\n Duration : 21mn 1s\n Overall bit rate : 4 151 Kbps\n Encoded date : UTC 2015-08-28 16:32:32\n Tagged date : UTC 2015-08-28 18:54:16\n\n Video\n ID : 1\n Format : AVC\n Format/Info : Advanced Video Codec\n Format profile : High@L4\n Format settings, CABAC : Yes\n Format settings, ReFrames : 4 frames\n Codec ID : avc1\n Codec ID/Info : Advanced Video Coding\n Duration : 21mn 1s\n Bit rate : 3 800 Kbps\n Width : 1 920 pixels\n Height : 1 080 pixels\n Display aspect ratio : 16:9\n Frame rate mode : Variable\n Frame rate : 29.664 fps\n Original frame rate : 29.970 fps\n Minimum frame rate : 7.493 fps\n Maximum frame rate : 29.970 fps\n Color space : YUV\n Chroma subsampling : 4:2:0\n Bit depth : 8 bits\n Scan type : Progressive\n Bits/(Pixel*Frame) : 0.062\n Stream size : 566 MiB (91%)\n Writing library : x264 core 146 r2538 121396c\n Encoding settings : cabac=1 / ref=3 / deblock=1:0:0 / analyse=0x3:0x133 / me=hex / subme=7 / psy=1 / psy_rd=1.00:0.00 / mixed_ref=1 / me_range=16 / chroma_me=1 / trellis=1 / 8x8dct=1 / cqm=0 / deadzone=21,11 / fast_pskip=1 / chroma_qp_offset=-2 / threads=6 / lookahead_threads=1 / sliced_threads=0 / nr=0 / decimate=1 / interlaced=0 / bluray_compat=0 / constrained_intra=0 / bframes=3 / b_pyramid=2 / b_adapt=1 / b_bias=0 / direct=1 / weightb=1 / open_gop=0 / weightp=2 / keyint=250 / keyint_min=25 / scenecut=40 / intra_refresh=0 / rc_lookahead=40 / rc=2pass / mbtree=1 / bitrate=3800 / ratetol=1.0 / qcomp=0.60 / qpmin=10 / qpmax=51 / qpstep=4 / cplxblur=20.0 / qblur=0.5 / ip_ratio=1.40 / aq=1:1.00\n Encoded date : UTC 2015-08-28 16:32:33\n Tagged date : UTC 2015-08-28 18:54:16\n\n Audio\n ID : 2\n Format : AC-3\n Format/Info : Audio Coding 3\n Mode extension : CM (complete main)\n Format settings, Endianness : Big\n Codec ID : ac-3\n Duration : 21mn 1s\n Duration_FirstFrame : 231ms\n Bit rate mode : Constant\n Bit rate : 384 Kbps\n Channel(s) : 6 channels\n Channel positions : Front: L C R, Side: L R, LFE\n Sampling rate : 48.0 KHz\n Bit depth : 16 bits\n Compression mode : Lossy\n Stream size : 57.7 MiB (9%)\n Title : Stereo\n Language : English\n Encoded date : UTC 2015-08-28 16:32:34\n Tagged date : UTC 2015-08-28 18:54:16","torrent":{"xt":"urn:btih:c6b9b6eb12abde291fe608579cc5fb022e7cd079","amp;dn":"17+Kids+and+Counting+-+s01e01+-+Bif+Family+Meet+Big+Apple+-+1080","amp;tr":["udp%3A%2F%2Ftracker.openbittorrent.com%3A80","udp%3A%2F%2Fopen.demonii.com%3A1337","udp%3A%2F%2Ftracker.coppersurfer.tk%3A6969","udp%3A%2F%2Fexodus.desync.com%3A6969"],"infoHash":"c6b9b6eb12abde291fe608579cc5fb022e7cd079","infoHashBuffer":{"type":"Buffer","data":[198,185,182,235,18,171,222,41,31,230,8,87,156,197,251,2,46,124,208,121]},"announce":[],"urlList":[]}}